<mxfile modified="2022-01-05T04:51:57.755Z" host="app.diagrams.net" agent="5.0 (Macintosh; Intel Mac OS X 10_15_7) AppleWebKit/537.36 (KHTML, like Gecko) Chrome/96.0.4664.110 Safari/537.36" etag="xnOuVrJA3wv46vLKPyxI" version="16.2.1" type="github">
  <diagram id="Ht1M8jgEwFfnCIfOTk4-" name="Page-1">
    <mxGraphModel dx="2670" dy="785" grid="1" gridSize="10" guides="1" tooltips="1" connect="1" arrows="1" fold="1" page="1" pageScale="1" pageWidth="1169" pageHeight="827" math="0" shadow="0">
      <root>
        <mxCell id="0" />
        <mxCell id="1" parent="0" />
        <mxCell id="UEzPUAAOIrF-is8g5C7q-74" value="us-east-1" style="points=[[0,0],[0.25,0],[0.5,0],[0.75,0],[1,0],[1,0.25],[1,0.5],[1,0.75],[1,1],[0.75,1],[0.5,1],[0.25,1],[0,1],[0,0.75],[0,0.5],[0,0.25]];outlineConnect=0;gradientColor=none;html=1;whiteSpace=wrap;fontSize=12;fontStyle=0;shape=mxgraph.aws4.group;grIcon=mxgraph.aws4.group_aws_cloud_alt;strokeColor=#232F3E;fillColor=none;verticalAlign=top;align=left;spacingLeft=30;fontColor=#232F3E;dashed=0;labelBackgroundColor=#ffffff;container=1;pointerEvents=0;collapsible=0;recursiveResize=0;" parent="1" vertex="1">
          <mxGeometry x="50" y="30" width="1560" height="490" as="geometry" />
        </mxCell>
        <mxCell id="qV9of6L8epfPVTj_8UCJ-4" value="" style="edgeStyle=orthogonalEdgeStyle;rounded=0;orthogonalLoop=1;jettySize=auto;html=1;entryX=0;entryY=0.5;entryDx=0;entryDy=0;entryPerimeter=0;" edge="1" parent="UEzPUAAOIrF-is8g5C7q-74" source="qV9of6L8epfPVTj_8UCJ-1" target="qV9of6L8epfPVTj_8UCJ-44">
          <mxGeometry relative="1" as="geometry" />
        </mxCell>
        <mxCell id="qV9of6L8epfPVTj_8UCJ-1" value="" style="outlineConnect=0;dashed=0;verticalLabelPosition=bottom;verticalAlign=top;align=center;html=1;shape=mxgraph.aws3.sns;fillColor=#D9A741;gradientColor=none;" vertex="1" parent="UEzPUAAOIrF-is8g5C7q-74">
          <mxGeometry x="160" y="243.25" width="76.5" height="76.5" as="geometry" />
        </mxCell>
        <mxCell id="qV9of6L8epfPVTj_8UCJ-10" style="edgeStyle=orthogonalEdgeStyle;rounded=0;orthogonalLoop=1;jettySize=auto;html=1;" edge="1" parent="UEzPUAAOIrF-is8g5C7q-74" source="qV9of6L8epfPVTj_8UCJ-3" target="qV9of6L8epfPVTj_8UCJ-7">
          <mxGeometry relative="1" as="geometry" />
        </mxCell>
        <mxCell id="qV9of6L8epfPVTj_8UCJ-11" style="edgeStyle=orthogonalEdgeStyle;rounded=0;orthogonalLoop=1;jettySize=auto;html=1;" edge="1" parent="UEzPUAAOIrF-is8g5C7q-74" source="qV9of6L8epfPVTj_8UCJ-3" target="qV9of6L8epfPVTj_8UCJ-9">
          <mxGeometry relative="1" as="geometry" />
        </mxCell>
        <mxCell id="qV9of6L8epfPVTj_8UCJ-3" value="" style="outlineConnect=0;dashed=0;verticalLabelPosition=bottom;verticalAlign=top;align=center;html=1;shape=mxgraph.aws3.lambda_function;fillColor=#F58534;gradientColor=none;" vertex="1" parent="UEzPUAAOIrF-is8g5C7q-74">
          <mxGeometry x="650" y="245.5" width="69" height="72" as="geometry" />
        </mxCell>
        <mxCell id="qV9of6L8epfPVTj_8UCJ-48" value="" style="edgeStyle=orthogonalEdgeStyle;rounded=0;orthogonalLoop=1;jettySize=auto;html=1;" edge="1" parent="UEzPUAAOIrF-is8g5C7q-74" source="UEzPUAAOIrF-is8g5C7q-87" target="qV9of6L8epfPVTj_8UCJ-46">
          <mxGeometry relative="1" as="geometry" />
        </mxCell>
        <mxCell id="UEzPUAAOIrF-is8g5C7q-87" value="Global DynamoDB&lt;br&gt;Event Tracker" style="outlineConnect=0;fontColor=#232F3E;gradientColor=#4D72F3;gradientDirection=north;fillColor=#3334B9;strokeColor=#ffffff;dashed=0;verticalLabelPosition=bottom;verticalAlign=top;align=center;html=1;fontSize=12;fontStyle=0;aspect=fixed;shape=mxgraph.aws4.resourceIcon;resIcon=mxgraph.aws4.dynamodb;labelBackgroundColor=#ffffff;" parent="UEzPUAAOIrF-is8g5C7q-74" vertex="1">
          <mxGeometry x="390" y="242.5" width="78" height="78" as="geometry" />
        </mxCell>
        <mxCell id="qV9of6L8epfPVTj_8UCJ-6" value="Event Notifier SNS" style="text;html=1;strokeColor=none;fillColor=none;align=center;verticalAlign=middle;whiteSpace=wrap;rounded=0;" vertex="1" parent="UEzPUAAOIrF-is8g5C7q-74">
          <mxGeometry x="168" y="331" width="60" height="30" as="geometry" />
        </mxCell>
        <mxCell id="qV9of6L8epfPVTj_8UCJ-13" value="" style="edgeStyle=orthogonalEdgeStyle;rounded=0;orthogonalLoop=1;jettySize=auto;html=1;" edge="1" parent="UEzPUAAOIrF-is8g5C7q-74" source="qV9of6L8epfPVTj_8UCJ-7" target="qV9of6L8epfPVTj_8UCJ-12">
          <mxGeometry relative="1" as="geometry" />
        </mxCell>
        <mxCell id="qV9of6L8epfPVTj_8UCJ-7" value="" style="sketch=0;points=[[0,0,0],[0.25,0,0],[0.5,0,0],[0.75,0,0],[1,0,0],[0,1,0],[0.25,1,0],[0.5,1,0],[0.75,1,0],[1,1,0],[0,0.25,0],[0,0.5,0],[0,0.75,0],[1,0.25,0],[1,0.5,0],[1,0.75,0]];outlineConnect=0;fontColor=#232F3E;gradientColor=#FF4F8B;gradientDirection=north;fillColor=#BC1356;strokeColor=#ffffff;dashed=0;verticalLabelPosition=bottom;verticalAlign=top;align=center;html=1;fontSize=12;fontStyle=0;aspect=fixed;shape=mxgraph.aws4.resourceIcon;resIcon=mxgraph.aws4.sqs;" vertex="1" parent="UEzPUAAOIrF-is8g5C7q-74">
          <mxGeometry x="759" y="211" width="78" height="78" as="geometry" />
        </mxCell>
        <mxCell id="qV9of6L8epfPVTj_8UCJ-15" value="" style="edgeStyle=orthogonalEdgeStyle;rounded=0;orthogonalLoop=1;jettySize=auto;html=1;" edge="1" parent="UEzPUAAOIrF-is8g5C7q-74" source="qV9of6L8epfPVTj_8UCJ-9" target="qV9of6L8epfPVTj_8UCJ-14">
          <mxGeometry relative="1" as="geometry" />
        </mxCell>
        <mxCell id="qV9of6L8epfPVTj_8UCJ-9" value="" style="sketch=0;points=[[0,0,0],[0.25,0,0],[0.5,0,0],[0.75,0,0],[1,0,0],[0,1,0],[0.25,1,0],[0.5,1,0],[0.75,1,0],[1,1,0],[0,0.25,0],[0,0.5,0],[0,0.75,0],[1,0.25,0],[1,0.5,0],[1,0.75,0]];outlineConnect=0;fontColor=#232F3E;gradientColor=#FF4F8B;gradientDirection=north;fillColor=#BC1356;strokeColor=#ffffff;dashed=0;verticalLabelPosition=bottom;verticalAlign=top;align=center;html=1;fontSize=12;fontStyle=0;aspect=fixed;shape=mxgraph.aws4.resourceIcon;resIcon=mxgraph.aws4.sqs;" vertex="1" parent="UEzPUAAOIrF-is8g5C7q-74">
          <mxGeometry x="759" y="311" width="78" height="78" as="geometry" />
        </mxCell>
        <mxCell id="qV9of6L8epfPVTj_8UCJ-12" value="" style="outlineConnect=0;dashed=0;verticalLabelPosition=bottom;verticalAlign=top;align=center;html=1;shape=mxgraph.aws3.lambda_function;fillColor=#F58534;gradientColor=none;" vertex="1" parent="UEzPUAAOIrF-is8g5C7q-74">
          <mxGeometry x="884" y="214" width="69" height="72" as="geometry" />
        </mxCell>
        <mxCell id="qV9of6L8epfPVTj_8UCJ-14" value="" style="outlineConnect=0;dashed=0;verticalLabelPosition=bottom;verticalAlign=top;align=center;html=1;shape=mxgraph.aws3.lambda_function;fillColor=#F58534;gradientColor=none;" vertex="1" parent="UEzPUAAOIrF-is8g5C7q-74">
          <mxGeometry x="884" y="314" width="69" height="72" as="geometry" />
        </mxCell>
        <mxCell id="qV9of6L8epfPVTj_8UCJ-36" style="edgeStyle=orthogonalEdgeStyle;rounded=0;orthogonalLoop=1;jettySize=auto;html=1;" edge="1" parent="UEzPUAAOIrF-is8g5C7q-74" source="qV9of6L8epfPVTj_8UCJ-17" target="qV9of6L8epfPVTj_8UCJ-35">
          <mxGeometry relative="1" as="geometry" />
        </mxCell>
        <mxCell id="qV9of6L8epfPVTj_8UCJ-40" style="edgeStyle=orthogonalEdgeStyle;rounded=0;orthogonalLoop=1;jettySize=auto;html=1;entryX=0;entryY=0.5;entryDx=0;entryDy=0;entryPerimeter=0;" edge="1" parent="UEzPUAAOIrF-is8g5C7q-74" source="qV9of6L8epfPVTj_8UCJ-17" target="qV9of6L8epfPVTj_8UCJ-19">
          <mxGeometry relative="1" as="geometry" />
        </mxCell>
        <mxCell id="qV9of6L8epfPVTj_8UCJ-17" value="" style="sketch=0;points=[[0,0,0],[0.25,0,0],[0.5,0,0],[0.75,0,0],[1,0,0],[0,1,0],[0.25,1,0],[0.5,1,0],[0.75,1,0],[1,1,0],[0,0.25,0],[0,0.5,0],[0,0.75,0],[1,0.25,0],[1,0.5,0],[1,0.75,0]];outlineConnect=0;fontColor=#232F3E;gradientColor=#945DF2;gradientDirection=north;fillColor=#5A30B5;strokeColor=#ffffff;dashed=0;verticalLabelPosition=bottom;verticalAlign=top;align=center;html=1;fontSize=12;fontStyle=0;aspect=fixed;shape=mxgraph.aws4.resourceIcon;resIcon=mxgraph.aws4.athena;" vertex="1" parent="UEzPUAAOIrF-is8g5C7q-74">
          <mxGeometry x="1013" y="211" width="78" height="78" as="geometry" />
        </mxCell>
        <mxCell id="UEzPUAAOIrF-is8g5C7q-92" value="" style="edgeStyle=orthogonalEdgeStyle;rounded=0;orthogonalLoop=1;jettySize=auto;html=1;endArrow=open;endFill=0;strokeWidth=2;" parent="UEzPUAAOIrF-is8g5C7q-74" source="UEzPUAAOIrF-is8g5C7q-81" edge="1">
          <mxGeometry relative="1" as="geometry">
            <mxPoint x="712" y="488" as="targetPoint" />
          </mxGeometry>
        </mxCell>
        <mxCell id="qV9of6L8epfPVTj_8UCJ-18" value="" style="edgeStyle=orthogonalEdgeStyle;rounded=0;orthogonalLoop=1;jettySize=auto;html=1;" edge="1" parent="UEzPUAAOIrF-is8g5C7q-74" source="qV9of6L8epfPVTj_8UCJ-12" target="qV9of6L8epfPVTj_8UCJ-17">
          <mxGeometry relative="1" as="geometry" />
        </mxCell>
        <mxCell id="qV9of6L8epfPVTj_8UCJ-39" style="edgeStyle=orthogonalEdgeStyle;rounded=0;orthogonalLoop=1;jettySize=auto;html=1;entryX=0;entryY=0.75;entryDx=0;entryDy=0;entryPerimeter=0;" edge="1" parent="UEzPUAAOIrF-is8g5C7q-74" source="qV9of6L8epfPVTj_8UCJ-19" target="qV9of6L8epfPVTj_8UCJ-21">
          <mxGeometry relative="1" as="geometry" />
        </mxCell>
        <mxCell id="qV9of6L8epfPVTj_8UCJ-19" value="" style="outlineConnect=0;dashed=0;verticalLabelPosition=bottom;verticalAlign=top;align=center;html=1;shape=mxgraph.aws3.s3;fillColor=#E05243;gradientColor=none;" vertex="1" parent="UEzPUAAOIrF-is8g5C7q-74">
          <mxGeometry x="1136" y="100" width="76.5" height="93" as="geometry" />
        </mxCell>
        <mxCell id="UEzPUAAOIrF-is8g5C7q-77" value="Bucket" style="outlineConnect=0;fontColor=#232F3E;gradientColor=none;fillColor=#277116;strokeColor=none;dashed=0;verticalLabelPosition=bottom;verticalAlign=top;align=center;html=1;fontSize=12;fontStyle=0;aspect=fixed;pointerEvents=1;shape=mxgraph.aws4.bucket_with_objects;labelBackgroundColor=#ffffff;" parent="UEzPUAAOIrF-is8g5C7q-74" vertex="1">
          <mxGeometry x="50" y="241.75" width="75" height="78" as="geometry" />
        </mxCell>
        <mxCell id="UEzPUAAOIrF-is8g5C7q-89" value="" style="edgeStyle=orthogonalEdgeStyle;rounded=0;orthogonalLoop=1;jettySize=auto;html=1;endArrow=open;endFill=0;strokeWidth=2;" parent="UEzPUAAOIrF-is8g5C7q-74" source="UEzPUAAOIrF-is8g5C7q-77" target="qV9of6L8epfPVTj_8UCJ-1" edge="1">
          <mxGeometry relative="1" as="geometry">
            <Array as="points" />
          </mxGeometry>
        </mxCell>
        <mxCell id="qV9of6L8epfPVTj_8UCJ-21" value="" style="sketch=0;points=[[0,0,0],[0.25,0,0],[0.5,0,0],[0.75,0,0],[1,0,0],[0,1,0],[0.25,1,0],[0.5,1,0],[0.75,1,0],[1,1,0],[0,0.25,0],[0,0.5,0],[0,0.75,0],[1,0.25,0],[1,0.5,0],[1,0.75,0]];outlineConnect=0;fontColor=#232F3E;gradientColor=#F78E04;gradientDirection=north;fillColor=#D05C17;strokeColor=#ffffff;dashed=0;verticalLabelPosition=bottom;verticalAlign=top;align=center;html=1;fontSize=12;fontStyle=0;aspect=fixed;shape=mxgraph.aws4.resourceIcon;resIcon=mxgraph.aws4.batch;" vertex="1" parent="UEzPUAAOIrF-is8g5C7q-74">
          <mxGeometry x="1288" y="311" width="78" height="78" as="geometry" />
        </mxCell>
        <mxCell id="qV9of6L8epfPVTj_8UCJ-22" value="" style="edgeStyle=orthogonalEdgeStyle;rounded=0;orthogonalLoop=1;jettySize=auto;html=1;" edge="1" parent="UEzPUAAOIrF-is8g5C7q-74" source="qV9of6L8epfPVTj_8UCJ-14" target="qV9of6L8epfPVTj_8UCJ-21">
          <mxGeometry relative="1" as="geometry" />
        </mxCell>
        <mxCell id="qV9of6L8epfPVTj_8UCJ-33" value="Athena" style="text;html=1;strokeColor=none;fillColor=none;align=center;verticalAlign=middle;whiteSpace=wrap;rounded=0;" vertex="1" parent="UEzPUAAOIrF-is8g5C7q-74">
          <mxGeometry x="1013" y="163" width="60" height="30" as="geometry" />
        </mxCell>
        <mxCell id="qV9of6L8epfPVTj_8UCJ-43" style="edgeStyle=orthogonalEdgeStyle;rounded=0;orthogonalLoop=1;jettySize=auto;html=1;entryX=0;entryY=0.25;entryDx=0;entryDy=0;entryPerimeter=0;" edge="1" parent="UEzPUAAOIrF-is8g5C7q-74" source="qV9of6L8epfPVTj_8UCJ-35" target="qV9of6L8epfPVTj_8UCJ-21">
          <mxGeometry relative="1" as="geometry" />
        </mxCell>
        <mxCell id="qV9of6L8epfPVTj_8UCJ-35" value="" style="outlineConnect=0;dashed=0;verticalLabelPosition=bottom;verticalAlign=top;align=center;html=1;shape=mxgraph.aws3.s3;fillColor=#E05243;gradientColor=none;" vertex="1" parent="UEzPUAAOIrF-is8g5C7q-74">
          <mxGeometry x="1136" y="203.5" width="76.5" height="93" as="geometry" />
        </mxCell>
        <mxCell id="qV9of6L8epfPVTj_8UCJ-34" value="S3 Bucket with New Records&lt;br&gt;" style="text;html=1;strokeColor=none;fillColor=none;align=center;verticalAlign=middle;whiteSpace=wrap;rounded=0;" vertex="1" parent="UEzPUAAOIrF-is8g5C7q-74">
          <mxGeometry x="1109.25" y="70" width="130" height="20" as="geometry" />
        </mxCell>
        <mxCell id="qV9of6L8epfPVTj_8UCJ-37" value="S3 Bucket with Updated and&amp;nbsp;Deleted Records" style="text;html=1;strokeColor=none;fillColor=none;align=center;verticalAlign=middle;whiteSpace=wrap;rounded=0;" vertex="1" parent="UEzPUAAOIrF-is8g5C7q-74">
          <mxGeometry x="1109.25" y="311" width="130" height="20" as="geometry" />
        </mxCell>
        <mxCell id="qV9of6L8epfPVTj_8UCJ-23" value="Global&lt;br&gt;DynamoDB&lt;br&gt;Master Data" style="outlineConnect=0;fontColor=#232F3E;gradientColor=#4D72F3;gradientDirection=north;fillColor=#3334B9;strokeColor=#ffffff;dashed=0;verticalLabelPosition=bottom;verticalAlign=top;align=center;html=1;fontSize=12;fontStyle=0;aspect=fixed;shape=mxgraph.aws4.resourceIcon;resIcon=mxgraph.aws4.dynamodb;labelBackgroundColor=#ffffff;" vertex="1" parent="UEzPUAAOIrF-is8g5C7q-74">
          <mxGeometry x="1420" y="311" width="78" height="78" as="geometry" />
        </mxCell>
        <mxCell id="qV9of6L8epfPVTj_8UCJ-28" value="" style="edgeStyle=orthogonalEdgeStyle;rounded=0;orthogonalLoop=1;jettySize=auto;html=1;" edge="1" parent="UEzPUAAOIrF-is8g5C7q-74" source="qV9of6L8epfPVTj_8UCJ-21" target="qV9of6L8epfPVTj_8UCJ-23">
          <mxGeometry relative="1" as="geometry" />
        </mxCell>
        <mxCell id="qV9of6L8epfPVTj_8UCJ-45" value="" style="edgeStyle=orthogonalEdgeStyle;rounded=0;orthogonalLoop=1;jettySize=auto;html=1;" edge="1" parent="UEzPUAAOIrF-is8g5C7q-74" source="qV9of6L8epfPVTj_8UCJ-44" target="UEzPUAAOIrF-is8g5C7q-87">
          <mxGeometry relative="1" as="geometry" />
        </mxCell>
        <mxCell id="qV9of6L8epfPVTj_8UCJ-44" value="" style="outlineConnect=0;dashed=0;verticalLabelPosition=bottom;verticalAlign=top;align=center;html=1;shape=mxgraph.aws3.lambda_function;fillColor=#F58534;gradientColor=none;" vertex="1" parent="UEzPUAAOIrF-is8g5C7q-74">
          <mxGeometry x="284.5" y="245.5" width="69" height="72" as="geometry" />
        </mxCell>
        <mxCell id="qV9of6L8epfPVTj_8UCJ-49" value="" style="edgeStyle=orthogonalEdgeStyle;rounded=0;orthogonalLoop=1;jettySize=auto;html=1;" edge="1" parent="UEzPUAAOIrF-is8g5C7q-74" source="qV9of6L8epfPVTj_8UCJ-46" target="qV9of6L8epfPVTj_8UCJ-3">
          <mxGeometry relative="1" as="geometry" />
        </mxCell>
        <mxCell id="qV9of6L8epfPVTj_8UCJ-46" value="" style="sketch=0;points=[[0,0,0],[0.25,0,0],[0.5,0,0],[0.75,0,0],[1,0,0],[0,1,0],[0.25,1,0],[0.5,1,0],[0.75,1,0],[1,1,0],[0,0.25,0],[0,0.5,0],[0,0.75,0],[1,0.25,0],[1,0.5,0],[1,0.75,0]];outlineConnect=0;fontColor=#232F3E;gradientColor=#945DF2;gradientDirection=north;fillColor=#5A30B5;strokeColor=#ffffff;dashed=0;verticalLabelPosition=bottom;verticalAlign=top;align=center;html=1;fontSize=12;fontStyle=0;aspect=fixed;shape=mxgraph.aws4.resourceIcon;resIcon=mxgraph.aws4.kinesis;" vertex="1" parent="UEzPUAAOIrF-is8g5C7q-74">
          <mxGeometry x="520" y="242.5" width="78" height="78" as="geometry" />
        </mxCell>
        <mxCell id="qV9of6L8epfPVTj_8UCJ-52" value="AWS Batch Jobs&lt;br&gt;Upserts Data" style="text;html=1;align=center;verticalAlign=middle;resizable=0;points=[];autosize=1;strokeColor=none;fillColor=none;" vertex="1" parent="UEzPUAAOIrF-is8g5C7q-74">
          <mxGeometry x="1272" y="400" width="110" height="30" as="geometry" />
        </mxCell>
        <mxCell id="qV9of6L8epfPVTj_8UCJ-54" value="Full Load Lambda" style="text;html=1;align=center;verticalAlign=middle;resizable=0;points=[];autosize=1;strokeColor=none;fillColor=none;" vertex="1" parent="UEzPUAAOIrF-is8g5C7q-74">
          <mxGeometry x="870" y="400" width="110" height="20" as="geometry" />
        </mxCell>
        <mxCell id="qV9of6L8epfPVTj_8UCJ-53" value="Differential Lambda" style="text;html=1;align=center;verticalAlign=middle;resizable=0;points=[];autosize=1;strokeColor=none;fillColor=none;" vertex="1" parent="UEzPUAAOIrF-is8g5C7q-74">
          <mxGeometry x="860" y="168" width="120" height="20" as="geometry" />
        </mxCell>
        <mxCell id="UEzPUAAOIrF-is8g5C7q-75" value="us-west-2" style="points=[[0,0],[0.25,0],[0.5,0],[0.75,0],[1,0],[1,0.25],[1,0.5],[1,0.75],[1,1],[0.75,1],[0.5,1],[0.25,1],[0,1],[0,0.75],[0,0.5],[0,0.25]];outlineConnect=0;gradientColor=none;html=1;whiteSpace=wrap;fontSize=12;fontStyle=0;shape=mxgraph.aws4.group;grIcon=mxgraph.aws4.group_aws_cloud_alt;strokeColor=#232F3E;fillColor=none;verticalAlign=top;align=left;spacingLeft=30;fontColor=#232F3E;dashed=0;labelBackgroundColor=#ffffff;container=1;pointerEvents=0;collapsible=0;recursiveResize=0;" parent="1" vertex="1">
          <mxGeometry x="50" y="530" width="1560" height="280" as="geometry" />
        </mxCell>
        <mxCell id="qV9of6L8epfPVTj_8UCJ-25" value="Replica Bucket" style="outlineConnect=0;fontColor=#232F3E;gradientColor=none;fillColor=#277116;strokeColor=none;dashed=0;verticalLabelPosition=bottom;verticalAlign=top;align=center;html=1;fontSize=12;fontStyle=0;aspect=fixed;pointerEvents=1;shape=mxgraph.aws4.bucket_with_objects;labelBackgroundColor=#ffffff;" vertex="1" parent="UEzPUAAOIrF-is8g5C7q-75">
          <mxGeometry x="50" y="60" width="75" height="78" as="geometry" />
        </mxCell>
        <mxCell id="UEzPUAAOIrF-is8g5C7q-88" value="" style="edgeStyle=orthogonalEdgeStyle;rounded=0;orthogonalLoop=1;jettySize=auto;html=1;endArrow=open;endFill=0;strokeWidth=2;" parent="1" source="UEzPUAAOIrF-is8g5C7q-76" target="UEzPUAAOIrF-is8g5C7q-77" edge="1">
          <mxGeometry relative="1" as="geometry" />
        </mxCell>
        <mxCell id="UEzPUAAOIrF-is8g5C7q-101" value="" style="edgeStyle=orthogonalEdgeStyle;rounded=0;orthogonalLoop=1;jettySize=auto;html=1;endArrow=open;endFill=0;strokeWidth=2;" parent="1" source="UEzPUAAOIrF-is8g5C7q-84" edge="1">
          <mxGeometry relative="1" as="geometry">
            <mxPoint x="958" y="349" as="targetPoint" />
          </mxGeometry>
        </mxCell>
        <mxCell id="UEzPUAAOIrF-is8g5C7q-76" value="Object" style="outlineConnect=0;fontColor=#232F3E;gradientColor=none;fillColor=#277116;strokeColor=none;dashed=0;verticalLabelPosition=bottom;verticalAlign=top;align=center;html=1;fontSize=12;fontStyle=0;aspect=fixed;pointerEvents=1;shape=mxgraph.aws4.object;labelBackgroundColor=#ffffff;" parent="1" vertex="1">
          <mxGeometry x="-70" y="271.75" width="78" height="78" as="geometry" />
        </mxCell>
        <mxCell id="qV9of6L8epfPVTj_8UCJ-26" value="" style="endArrow=classic;startArrow=classic;html=1;rounded=0;" edge="1" parent="1" source="qV9of6L8epfPVTj_8UCJ-25" target="UEzPUAAOIrF-is8g5C7q-77">
          <mxGeometry width="50" height="50" relative="1" as="geometry">
            <mxPoint x="120" y="421" as="sourcePoint" />
            <mxPoint x="170" y="371" as="targetPoint" />
          </mxGeometry>
        </mxCell>
        <mxCell id="qV9of6L8epfPVTj_8UCJ-50" value="Dynamodb Stream" style="text;html=1;align=center;verticalAlign=middle;resizable=0;points=[];autosize=1;strokeColor=none;fillColor=none;" vertex="1" parent="1">
          <mxGeometry x="550" y="360" width="120" height="20" as="geometry" />
        </mxCell>
        <mxCell id="qV9of6L8epfPVTj_8UCJ-51" value="Notifier Lambda" style="text;html=1;align=center;verticalAlign=middle;resizable=0;points=[];autosize=1;strokeColor=none;fillColor=none;" vertex="1" parent="1">
          <mxGeometry x="310" y="360" width="100" height="20" as="geometry" />
        </mxCell>
      </root>
    </mxGraphModel>
  </diagram>
</mxfile>
